<svg xmlns="http://www.w3.org/2000/svg" width="375" height="100" viewBox="0 0 375 100" fill="none"><g clip-path="url(#clip0_373_2)"><path fill-rule="evenodd" clip-rule="evenodd" d="M31.2227 60.8876L18.2152 70.3132L15.6373 66.7654L28.6168 57.3438" fill="#B4C6E3"></path><path fill-rule="evenodd" clip-rule="evenodd" d="M49.6 64.1592L54.5898 79.4826L50.418 80.8385L45.4202 65.5051" fill="#B4C6E3"></path><path fill-rule="evenodd" clip-rule="evenodd" d="M58.4096 47.666H74.333V52.0558H58.3956" fill="#B4C6E3"></path><path fill-rule="evenodd" clip-rule="evenodd" d="M45.4442 34.1868L50.334 19.1094L54.5279 20.4653L49.61 35.5567" fill="#B4C6E3"></path><path fill-rule="evenodd" clip-rule="evenodd" d="M28.6168 42.3863L15.6373 32.9367L18.2152 29.3828L31.1847 38.8184" fill="#B4C6E3"></path><path fill-rule="evenodd" clip-rule="evenodd" d="M59.9956 49.8482L49.596 64.1576L48.0081 66.3455L45.4082 65.5036L28.6089 60.0438V39.6446L45.4342 34.1748L48.0041 33.3389L59.9956 49.8482ZM46.3322 38.5147L33.0147 42.8425V56.8539L46.3322 61.1858L54.5699 49.8482L46.3322 38.5147Z" fill="white"></path><path fill-rule="evenodd" clip-rule="evenodd" d="M95.1102 49.848L87.1725 60.7856L74.3311 56.6098V43.0943L87.1725 38.9185L95.1102 49.848ZM85.4946 44.0783L78.7109 46.2782V53.4139L85.4946 55.6138L89.6944 49.844L85.4946 44.0783Z" fill="#B4C6E3"></path><path fill-rule="evenodd" clip-rule="evenodd" d="M66.7274 89.0604L58.7837 100L45.9502 95.8282V82.3067L58.7917 78.1309L66.7274 89.0604ZM57.1097 83.2867L50.328 85.4866V92.6203L57.1097 94.8202L61.2996 89.0504L57.1097 83.2867Z" fill="#B4C6E3"></path><path fill-rule="evenodd" clip-rule="evenodd" d="M66.7274 10.9276L58.7837 21.8672L45.9502 17.6913V4.17388L58.8077 -0.00195312L66.7274 10.9276ZM57.1097 5.15984L50.328 7.35975V14.4955L57.1097 16.6954L61.2996 10.9336L57.1097 5.15984Z" fill="#B4C6E3"></path><path fill-rule="evenodd" clip-rule="evenodd" d="M20.7832 25.8527L12.8395 36.7923L0 32.6165V19.081L12.8395 14.9092L20.7832 25.8527ZM11.1616 20.083L4.37983 22.2829V29.4186L11.1616 31.6185L15.3614 25.8487L11.1616 20.083Z" fill="#B4C6E3"></path><path fill-rule="evenodd" clip-rule="evenodd" d="M20.7832 73.827L12.8395 84.7705L0 80.5907V67.1172L12.8395 62.9414L20.7832 73.827ZM11.1616 68.0672L4.37983 70.2791V77.4128L11.1616 79.6127L15.3614 73.845L11.1616 68.0672Z" fill="#B4C6E3"></path></g><path d="M355.735 31.0259C355.735 26.4179 359.551 23.2139 365.095 23.2139C370.423 23.2139 373.807 26.1659 373.951 30.9179H369.342C369.234 28.6499 367.615 27.3179 365.023 27.3179C362.179 27.3179 360.342 28.6859 360.342 30.8819C360.342 32.7539 361.351 33.7979 363.547 34.3019L367.687 35.2019C372.187 36.1739 374.383 38.4779 374.383 42.4019C374.383 47.2979 370.567 50.4659 364.771 50.4659C359.155 50.4659 355.483 47.4779 355.375 42.7619H359.982C360.018 44.9939 361.819 46.3259 364.771 46.3259C367.831 46.3259 369.775 44.9939 369.775 42.7979C369.775 41.0339 368.875 39.9899 366.715 39.5219L362.539 38.5859C358.075 37.6139 355.735 35.0579 355.735 31.0259Z" fill="white"></path><path d="M330.197 49.9981V23.6821H340.673C345.857 23.6821 349.025 26.3821 349.025 30.7741C349.025 33.6901 347.729 35.7781 345.245 36.8221C348.017 37.7221 349.421 39.8101 349.421 42.8701C349.421 47.3701 346.289 49.9981 340.853 49.9981H330.197ZM340.277 27.7501H334.805V34.9141H340.385C342.905 34.9141 344.309 33.5821 344.309 31.2421C344.309 28.9741 342.869 27.7501 340.277 27.7501ZM340.673 38.8021H334.805V45.9301H340.673C343.265 45.9301 344.705 44.6701 344.705 42.2941C344.705 40.0621 343.229 38.8021 340.673 38.8021Z" fill="white"></path><path d="M304.361 49.9981H299.573L309.077 23.6821H313.793L323.297 49.9981H318.437L316.313 43.9141H306.485L304.361 49.9981ZM310.841 31.5301L307.853 40.0261H314.981L311.957 31.5301C311.741 30.8461 311.489 30.0541 311.417 29.5141C311.309 30.0181 311.093 30.8101 310.841 31.5301Z" fill="white"></path><path d="M283.027 23.6821V45.7501H294.043V49.9981H278.419V23.6821H283.027Z" fill="white"></path><path d="M239.28 49.9981H234.492L243.996 23.6821H248.712L258.216 49.9981H253.356L251.232 43.9141H241.404L239.28 49.9981ZM245.76 31.5301L242.772 40.0261H249.9L246.876 31.5301C246.66 30.8461 246.408 30.0541 246.336 29.5141C246.228 30.0181 246.012 30.8101 245.76 31.5301Z" fill="#B4C6E3"></path><path d="M204.466 49.9981L196.618 23.6821H201.406L205.582 37.5781C205.978 39.0181 206.374 40.4941 206.77 42.7981C207.202 40.4581 207.598 39.0901 208.066 37.5781L212.206 23.6821H217.282L221.35 37.5781C221.782 39.0541 222.178 40.5661 222.61 42.7981C223.114 40.3501 223.474 38.9461 223.87 37.6141L228.118 23.6821H232.798L224.806 49.9981H220.342L214.726 30.8461L209.002 49.9981H204.466Z" fill="#B4C6E3"></path><path d="M171.504 27.9301V23.6821H191.52V27.9301H183.816V49.9981H179.208V27.9301H171.504Z" fill="#B4C6E3"></path><path d="M150.328 49.9981H145.54L155.044 23.6821H159.76L169.264 49.9981H164.404L162.28 43.9141H152.452L150.328 49.9981ZM156.808 31.5301L153.82 40.0261H160.948L157.924 31.5301C157.708 30.8461 157.456 30.0541 157.384 29.5141C157.276 30.0181 157.06 30.8101 156.808 31.5301Z" fill="#B4C6E3"></path><path d="M128.58 49.9981H119.112V23.6821H128.328C136.104 23.6821 141.468 29.0461 141.468 36.8941C141.468 44.6341 136.212 49.9981 128.58 49.9981ZM127.896 27.9301H123.72V45.7501H128.148C133.404 45.7501 136.608 42.3661 136.608 36.8941C136.608 31.3141 133.332 27.9301 127.896 27.9301Z" fill="#B4C6E3"></path><path d="M319.737 63.7858V62.4658H329.997V63.7858H325.577V76.7858H324.137V63.7858H319.737Z" fill="white"></path><path d="M306.419 76.7858H304.979V62.4658H306.439L314.319 74.3858V62.4658H315.739V76.7858H314.319L306.419 64.8658V76.7858Z" fill="white"></path><path d="M300.055 76.7858H291.475V62.4658H300.035V63.7858H292.915V68.9458H299.375V70.2458H292.915V75.4658H300.055V76.7858Z" fill="white"></path><path d="M274.118 76.7858H272.698V62.4658H274.118L279.338 75.0858L284.558 62.4658H285.998V76.7858H284.578V69.9858C284.578 67.4858 284.618 66.3858 284.698 65.4058L280.038 76.7858H278.658L273.998 65.4658C274.078 66.0058 274.118 67.5858 274.118 69.7658V76.7858Z" fill="white"></path><path d="M267.774 76.7858H259.194V62.4658H267.754V63.7858H260.634V68.9458H267.094V70.2458H260.634V75.4658H267.774V76.7858Z" fill="white"></path><path d="M248.458 62.4658V75.4658H255.038V76.7858H247.018V62.4658H248.458Z" fill="white"></path><path d="M242.095 76.7858H233.515V62.4658H242.075V63.7858H234.955V68.9458H241.415V70.2458H234.955V75.4658H242.095V76.7858Z" fill="white"></path><path d="M211.077 76.7858H209.617L214.877 62.4658H216.657L221.977 76.7858H220.477L219.077 72.9858H212.477L211.077 76.7858ZM215.577 64.4858L212.917 71.7258H218.617L215.937 64.4858C215.877 64.2858 215.777 64.0458 215.757 63.9058C215.737 64.0258 215.657 64.2858 215.577 64.4858Z" fill="white"></path><path d="M198.143 63.7858V62.4658H208.403V63.7858H203.983V76.7858H202.543V63.7858H198.143Z" fill="white"></path><path d="M186.061 76.7858H184.601L189.861 62.4658H191.641L196.961 76.7858H195.461L194.061 72.9858H187.461L186.061 76.7858ZM190.561 64.4858L187.901 71.7258H193.601L190.921 64.4858C190.861 64.2858 190.761 64.0458 190.741 63.9058C190.721 64.0258 190.641 64.2858 190.561 64.4858Z" fill="white"></path><path d="M174.867 76.7858H170.507V62.4658H174.827C179.147 62.4658 182.027 65.3458 182.027 69.6258C182.027 73.9058 179.167 76.7858 174.867 76.7858ZM174.767 63.7858H171.947V75.4658H174.807C178.307 75.4658 180.547 73.1858 180.547 69.6258C180.547 66.0458 178.307 63.7858 174.767 63.7858Z" fill="white"></path><path d="M158.036 76.7858H149.456V62.4658H158.016V63.7858H150.896V68.9458H157.356V70.2458H150.896V75.4658H158.036V76.7858Z" fill="white"></path><path d="M134.794 76.7858H133.354V62.4658H134.794V68.8458H142.534V62.4658H143.954V76.7858H142.534V70.1858H134.794V76.7858Z" fill="white"></path><path d="M119.112 63.7858V62.4658H129.372V63.7858H124.952V76.7858H123.512V63.7858H119.112Z" fill="white"></path><defs><clipPath id="clip0_373_2"><rect width="95.1122" height="100" fill="white"></rect></clipPath></defs></svg>